HIERARCHY
ROOT Hips
{
	OFFSET 0.000000 71.427986 0.000000
	CHANNELS 6 Xposition Yposition Zposition Xrotation Yrotation Zrotation
	JOINT Pelvis
	{
		OFFSET 0.000000 0.000000 0.000000
		CHANNELS 3 Xrotation Yrotation Zrotation
		JOINT LeftUpLeg
		{
			OFFSET 6.797100 -2.508499 -1.318700
			CHANNELS 3 Xrotation Yrotation Zrotation
			JOINT LeftLeg
			{
				OFFSET 0.069008 -29.241863 0.690200
				CHANNELS 3 Xrotation Yrotation Zrotation
				JOINT LeftFoot
				{
					OFFSET -0.069008 -29.568123 -0.266800
					CHANNELS 3 Xrotation Yrotation Zrotation
					JOINT LeftToeBase
					{
						OFFSET 3.145500 -8.631000 16.059900
						CHANNELS 3 Xrotation Yrotation Zrotation
						End Site
						{
							OFFSET 0.000000 18.501587 0.000000
						}
					}
				}
			}
			JOINT Left_ShortSleeve
			{
				OFFSET 0.265923 -10.480953 1.153800
				CHANNELS 3 Xrotation Yrotation Zrotation
				End Site
				{
					OFFSET 1.725763 19.823879 0.000000
				}
			}
		}
		JOINT RightUpLeg
		{
			OFFSET -6.797100 -2.508499 -1.318700
			CHANNELS 3 Xrotation Yrotation Zrotation
			JOINT RightLeg
			{
				OFFSET -0.082453 -29.241932 0.688000
				CHANNELS 3 Xrotation Yrotation Zrotation
				JOINT RightFoot
				{
					OFFSET 0.082453 -29.568058 -0.264600
					CHANNELS 3 Xrotation Yrotation Zrotation
					JOINT RightToeBase
					{
						OFFSET -3.115300 -8.682800 16.113400
						CHANNELS 3 Xrotation Yrotation Zrotation
						End Site
						{
							OFFSET 0.000000 18.567114 0.000000
						}
					}
				}
			}
			JOINT Right_ShortSleeve
			{
				OFFSET -0.265923 -10.480953 1.153800
				CHANNELS 3 Xrotation Yrotation Zrotation
				End Site
				{
					OFFSET -1.725766 19.823910 0.000000
				}
			}
		}
	}
	JOINT Spine
	{
		OFFSET 0.000000 13.368103 0.470500
		CHANNELS 3 Xrotation Yrotation Zrotation
		JOINT Spine1
		{
			OFFSET 0.147000 13.837402 0.538800
			CHANNELS 3 Xrotation Yrotation Zrotation
			JOINT Spine2
			{
				OFFSET 0.168000 16.242897 -1.435500
				CHANNELS 3 Xrotation Yrotation Zrotation
				JOINT Neck
				{
					OFFSET 0.217200 18.631500 -1.679100
					CHANNELS 3 Xrotation Yrotation Zrotation
					JOINT Head
					{
						OFFSET 0.000000 6.599396 1.385900
						CHANNELS 3 Xrotation Yrotation Zrotation
						JOINT Hat
						{
							OFFSET -0.532200 27.220596 -10.096100
							CHANNELS 3 Xrotation Yrotation Zrotation
							End Site
							{
								OFFSET 0.000000 22.029861 0.000000
							}
						}
						JOINT HairD
						{
							OFFSET -10.777400 17.437393 -1.325900
							CHANNELS 3 Xrotation Yrotation Zrotation
							JOINT HairD1
							{
								OFFSET -3.290299 -11.051193 1.062200
								CHANNELS 3 Xrotation Yrotation Zrotation
								End Site
								{
									OFFSET 0.000000 11.579437 0.000000
								}
							}
						}
						JOINT HairB
						{
							OFFSET -10.777400 17.437393 1.467900
							CHANNELS 3 Xrotation Yrotation Zrotation
							JOINT HairB1
							{
								OFFSET -1.561200 -12.956299 3.590200
								CHANNELS 3 Xrotation Yrotation Zrotation
								End Site
								{
									OFFSET 0.000000 13.534866 0.000000
								}
							}
						}
						JOINT HairA
						{
							OFFSET 9.713100 17.437393 1.467900
							CHANNELS 3 Xrotation Yrotation Zrotation
							JOINT HairA1
							{
								OFFSET 1.561200 -12.956299 3.590200
								CHANNELS 3 Xrotation Yrotation Zrotation
								End Site
								{
									OFFSET 0.000000 13.534866 0.000000
								}
							}
						}
						JOINT HairC
						{
							OFFSET 9.713100 17.437393 -1.325900
							CHANNELS 3 Xrotation Yrotation Zrotation
							JOINT HairC1
							{
								OFFSET 3.290300 -11.051193 1.062200
								CHANNELS 3 Xrotation Yrotation Zrotation
								End Site
								{
									OFFSET 0.000000 11.579437 0.000000
								}
							}
						}
					}
				}
				JOINT LeftShoulder
				{
					OFFSET 5.101800 15.108002 -2.763700
					CHANNELS 3 Xrotation Yrotation Zrotation
					JOINT LeftArm
					{
						OFFSET 9.825497 2.506317 -1.597400
						CHANNELS 3 Xrotation Yrotation Zrotation
						JOINT LeftForeArm
						{
							OFFSET 21.966244 0.000000 0.000000
							CHANNELS 3 Xrotation Yrotation Zrotation
							JOINT LeftHand
							{
								OFFSET 33.879036 0.000000 0.000000
								CHANNELS 3 Xrotation Yrotation Zrotation
								JOINT LeftHandThumb1
								{
									OFFSET 6.715286 -2.359680 3.363841
									CHANNELS 3 Xrotation Yrotation Zrotation
									JOINT LeftHandThumb2
									{
										OFFSET 2.507072 -1.447464 1.447461
										CHANNELS 3 Xrotation Yrotation Zrotation
										JOINT LeftHandThumb3
										{
											OFFSET 2.898338 -1.673355 1.673357
											CHANNELS 3 Xrotation Yrotation Zrotation
											End Site
											{
												OFFSET -0.295959 3.727692 -0.131651
											}
										}
									}
								}
								JOINT LeftHandIndex1
								{
									OFFSET 14.190811 -0.254547 3.840278
									CHANNELS 3 Xrotation Yrotation Zrotation
									JOINT LeftHandIndex2
									{
										OFFSET 3.551727 0.000000 -0.000000
										CHANNELS 3 Xrotation Yrotation Zrotation
										JOINT LeftHandIndex3
										{
											OFFSET 2.894196 0.000000 0.000000
											CHANNELS 3 Xrotation Yrotation Zrotation
											End Site
											{
												OFFSET -1.000603 2.690872 0.366626
											}
										}
									}
								}
								JOINT LeftHandMiddle1
								{
									OFFSET 13.776489 0.000000 0.000000
									CHANNELS 3 Xrotation Yrotation Zrotation
									JOINT LeftHandMiddle2
									{
										OFFSET 3.438232 0.000000 0.000000
										CHANNELS 3 Xrotation Yrotation Zrotation
										JOINT LeftHandMiddle3
										{
											OFFSET 3.691551 0.000000 0.000000
											CHANNELS 3 Xrotation Yrotation Zrotation
											End Site
											{
												OFFSET -1.082298 3.499527 0.457670
											}
										}
									}
								}
								JOINT LeftHandRing1
								{
									OFFSET 13.966164 -0.268127 -3.067488
									CHANNELS 3 Xrotation Yrotation Zrotation
									JOINT LeftHandRing2
									{
										OFFSET 3.162567 0.000000 0.000000
										CHANNELS 3 Xrotation Yrotation Zrotation
										JOINT LeftHandRing3
										{
											OFFSET 3.324348 0.000000 0.000000
											CHANNELS 3 Xrotation Yrotation Zrotation
											End Site
											{
												OFFSET -0.861900 3.184998 0.405154
											}
										}
									}
								}
								JOINT LeftHandPinky1
								{
									OFFSET 13.131393 -0.168503 -5.746925
									CHANNELS 3 Xrotation Yrotation Zrotation
									JOINT LeftHandPinky2
									{
										OFFSET 2.849182 0.000000 0.000000
										CHANNELS 3 Xrotation Yrotation Zrotation
										JOINT LeftHandPinky3
										{
											OFFSET 2.805038 0.000000 0.000000
											CHANNELS 3 Xrotation Yrotation Zrotation
											End Site
											{
												OFFSET -0.882500 2.642609 0.325652
											}
										}
									}
								}
							}
							JOINT Left_Sleeve
							{
								OFFSET 6.592125 -0.646545 0.805568
								CHANNELS 3 Xrotation Yrotation Zrotation
								End Site
								{
									OFFSET -0.000179 20.275787 -0.000000
								}
							}
						}
					}
				}
				JOINT RightShoulder
				{
					OFFSET -5.731700 15.108002 -2.763700
					CHANNELS 3 Xrotation Yrotation Zrotation
					JOINT RightArm
					{
						OFFSET -9.825497 2.506317 -1.597400
						CHANNELS 3 Xrotation Yrotation Zrotation
						JOINT RightForeArm
						{
							OFFSET -21.966242 0.000000 0.000000
							CHANNELS 3 Xrotation Yrotation Zrotation
							JOINT RightHand
							{
								OFFSET -33.879032 0.000000 0.000000
								CHANNELS 3 Xrotation Yrotation Zrotation
								JOINT RightHandThumb1
								{
									OFFSET -6.715286 -2.359680 3.363841
									CHANNELS 3 Xrotation Yrotation Zrotation
									JOINT RightHandThumb2
									{
										OFFSET -2.507072 -1.447464 1.447461
										CHANNELS 3 Xrotation Yrotation Zrotation
										JOINT RightHandThumb3
										{
											OFFSET -2.898338 -1.673355 1.673357
											CHANNELS 3 Xrotation Yrotation Zrotation
											End Site
											{
												OFFSET 0.295959 3.727692 -0.131651
											}
										}
									}
								}
								JOINT RightHandIndex1
								{
									OFFSET -14.190811 -0.254547 3.840278
									CHANNELS 3 Xrotation Yrotation Zrotation
									JOINT RightHandIndex2
									{
										OFFSET -3.551727 0.000000 -0.000000
										CHANNELS 3 Xrotation Yrotation Zrotation
										JOINT RightHandIndex3
										{
											OFFSET -2.894196 0.000000 0.000000
											CHANNELS 3 Xrotation Yrotation Zrotation
											End Site
											{
												OFFSET 1.000603 2.690872 0.366626
											}
										}
									}
								}
								JOINT RightHandMiddle1
								{
									OFFSET -13.776489 0.000000 0.000000
									CHANNELS 3 Xrotation Yrotation Zrotation
									JOINT RightHandMiddle2
									{
										OFFSET -3.438232 0.000000 0.000000
										CHANNELS 3 Xrotation Yrotation Zrotation
										JOINT RightHandMiddle3
										{
											OFFSET -3.691551 0.000000 0.000000
											CHANNELS 3 Xrotation Yrotation Zrotation
											End Site
											{
												OFFSET 1.082298 3.499527 0.457670
											}
										}
									}
								}
								JOINT RightHandRing1
								{
									OFFSET -13.966164 -0.268127 -3.067488
									CHANNELS 3 Xrotation Yrotation Zrotation
									JOINT RightHandRing2
									{
										OFFSET -3.162567 0.000000 0.000000
										CHANNELS 3 Xrotation Yrotation Zrotation
										JOINT RightHandRing3
										{
											OFFSET -3.324348 0.000000 0.000000
											CHANNELS 3 Xrotation Yrotation Zrotation
											End Site
											{
												OFFSET 0.861900 3.184998 0.405154
											}
										}
									}
								}
								JOINT RightHandPinky1
								{
									OFFSET -13.131393 -0.168503 -5.746925
									CHANNELS 3 Xrotation Yrotation Zrotation
									JOINT RightHandPinky2
									{
										OFFSET -2.849182 0.000000 0.000000
										CHANNELS 3 Xrotation Yrotation Zrotation
										JOINT RightHandPinky3
										{
											OFFSET -2.805038 0.000000 0.000000
											CHANNELS 3 Xrotation Yrotation Zrotation
											End Site
											{
												OFFSET 0.882500 2.642609 0.325652
											}
										}
									}
								}
							}
							JOINT Right_Sleeve
							{
								OFFSET -6.592125 -0.646545 0.805568
								CHANNELS 3 Xrotation Yrotation Zrotation
								End Site
								{
									OFFSET 0.000179 20.275787 -0.000000
								}
							}
						}
					}
				}
				JOINT Bind_Right_JacketString
				{
					OFFSET -3.534800 11.969597 7.200700
					CHANNELS 3 Xrotation Yrotation Zrotation
					JOINT Bind_Right_JacketString1
					{
						OFFSET -0.319900 -6.102600 2.794100
						CHANNELS 3 Xrotation Yrotation Zrotation
						End Site
						{
							OFFSET 0.000000 6.719452 0.000000
						}
					}
				}
				JOINT Bind_Left_JacketString
				{
					OFFSET 2.904800 11.969597 7.200700
					CHANNELS 3 Xrotation Yrotation Zrotation
					JOINT Bind_Left_JacketString1
					{
						OFFSET 0.364800 -5.904503 3.186800
						CHANNELS 3 Xrotation Yrotation Zrotation
						End Site
						{
							OFFSET 0.000000 6.719513 0.000000
						}
					}
				}
				JOINT HairE
				{
					OFFSET 5.915200 17.612701 -11.592200
					CHANNELS 3 Xrotation Yrotation Zrotation
					JOINT HairE1
					{
						OFFSET 0.289200 -7.171898 -1.284500
						CHANNELS 3 Xrotation Yrotation Zrotation
						End Site
						{
							OFFSET 0.000000 7.291756 0.000000
						}
					}
				}
				JOINT HairF
				{
					OFFSET -0.864800 17.612701 -11.592200
					CHANNELS 3 Xrotation Yrotation Zrotation
					JOINT HairF1
					{
						OFFSET 0.000000 -14.087097 -2.127501
						CHANNELS 3 Xrotation Yrotation Zrotation
						End Site
						{
							OFFSET 0.000000 14.246841 0.000000
						}
					}
				}
				JOINT HairG
				{
					OFFSET -8.087700 17.612701 -11.592200
					CHANNELS 3 Xrotation Yrotation Zrotation
					JOINT HairG1
					{
						OFFSET -0.293600 -6.081398 -0.910100
						CHANNELS 3 Xrotation Yrotation Zrotation
						End Site
						{
							OFFSET 0.000000 6.156120 0.000000
						}
					}
				}
			}
		}
	}
	JOINT Pouch
	{
		OFFSET 0.000000 4.394501 10.847300
		CHANNELS 3 Xrotation Yrotation Zrotation
		End Site
		{
			OFFSET 0.000000 21.880577 0.000000
		}
	}
	JOINT Bag
	{
		OFFSET -13.229000 4.813004 -0.593300
		CHANNELS 3 Xrotation Yrotation Zrotation
		End Site
		{
			OFFSET 0.000000 21.880577 0.000000
		}
	}
	JOINT OccupyGuyFacialAnim_Joint
	{
		OFFSET 1.000000 -70.206398 -1.655000
		CHANNELS 3 Xrotation Yrotation Zrotation
		End Site
		{
			OFFSET 0.000000 21.880577 0.000000
		}
	}
}
MOTION
Frames: 5
Frame Time: 0.033333
-0.284962 27.074440 1.038022 5.241937 -10.651940 4.708121 0.000000 -0.000000 0.000000 -121.353610 -7.668777 11.701315 119.946564 7.994607 1.572962 -0.426349 5.797883 -7.021715 -0.000000 -0.000000 -0.000000 0.000000 -0.000000 -0.000000 -56.470327 -4.409680 -21.693907 154.249058 -16.285883 -1.870112 -7.750332 -20.228543 -14.777792 -0.000000 0.000002 -0.000000 0.000002 0.000000 -0.000003 20.661000 -11.265160 -4.848057 5.040321 -2.382904 -1.729125 5.454244 -4.547983 0.328099 5.209007 7.757631 -1.444003 -21.041677 15.127440 1.543366 0.000001 -0.000000 -0.000000 0.000001 -0.000000 -0.000000 0.000001 -0.000000 -0.000000 0.000001 -0.000000 -0.000000 -0.000000 -0.000001 0.000000 0.000001 -0.000000 -0.000000 -0.000000 -0.000001 0.000000 0.000001 -0.000000 -0.000000 0.000001 -0.000000 -0.000000 3.271906 -13.946513 -1.973417 -35.636201 -8.423180 -32.266463 0.000264 -97.350809 0.000273 -149.102483 -27.134622 10.125805 9.873056 -5.863798 -9.427555 1.000141 0.731295 -1.438314 0.000001 -0.000001 -0.000001 -3.156947 0.551112 -39.712837 4.788065 5.754013 -79.514890 -0.000001 0.000001 -0.000000 1.027199 5.909640 -50.378789 5.070883 5.799009 -82.324154 -0.000003 -0.000002 -0.000001 2.566145 7.151503 -54.470957 5.460192 5.838044 -86.162789 -0.000003 0.000001 0.000005 4.135192 8.114458 -58.588680 4.970044 5.784592 -81.325020 0.000000 -0.000001 0.000001 -0.000002 0.000000 0.000000 -0.146742 25.944858 1.009435 -24.665205 20.542627 46.545557 0.000063 110.265946 -0.000065 -37.847219 -20.950041 7.959175 20.470562 7.475548 18.843590 4.151740 -12.160914 -33.847989 0.000001 -0.000001 -0.000002 -0.887121 1.428129 12.684538 1.917414 -3.767437 53.934316 0.000000 -0.000000 0.000000 0.770907 -5.199598 54.618817 5.564483 -4.568121 101.246442 -0.000001 0.000000 -0.000003 6.929606 -8.541896 63.908468 2.909308 -4.317386 67.934708 -0.000001 0.000000 -0.000004 8.373401 -8.171787 73.989943 2.173690 -3.940979 57.745377 -0.000002 0.000001 -0.000001 0.000004 -0.000001 0.000001 0.000001 -0.000002 -0.000000 0.000001 -0.000002 0.000000 0.000001 -0.000002 -0.000000 0.000001 -0.000002 -0.000000 0.000001 -0.000002 -0.000000 0.000001 -0.000002 -0.000000 0.000001 -0.000002 -0.000000 0.000001 -0.000002 -0.000000 0.000001 -0.000002 -0.000000 0.000001 -0.000002 -0.000000 0.000000 -0.000000 0.000000 0.000000 -0.000000 0.000000 0.000000 -0.000000 0.000000 
0.014333 27.508980 1.234922 6.255130 -11.184103 5.963228 -0.000000 0.000001 -0.000000 -120.711163 -7.560122 12.815712 119.976849 7.121383 0.248471 -1.671879 6.441463 -6.603954 0.000000 -0.000000 0.000000 0.000005 -0.000000 -0.000000 -58.417221 -3.042171 -22.299174 153.746957 -15.815527 -2.705314 -6.317119 -20.257042 -13.867189 -0.000001 -0.000000 -0.000000 -0.000000 0.000000 0.000001 20.883558 -11.240686 -6.244636 5.014113 -2.223180 -1.920132 5.411647 -4.368251 0.108200 4.935000 7.753094 -1.402821 -23.486526 14.682214 2.492061 0.000001 0.000000 -0.000000 0.000001 0.000000 -0.000000 0.000001 0.000000 -0.000000 0.000001 0.000000 -0.000000 -0.000001 0.000000 -0.000000 0.000001 0.000000 -0.000000 -0.000001 0.000000 -0.000000 0.000001 0.000000 -0.000000 0.000001 0.000000 -0.000000 3.267350 -13.975890 -2.079338 -37.698601 -9.926815 -31.691822 0.001453 -95.831345 0.001475 -149.142167 -25.767189 9.892977 9.873053 -5.863801 -9.427555 1.000141 0.731307 -1.438311 -0.000000 0.000001 -0.000001 -3.156939 0.551127 -39.712837 4.788053 5.754005 -79.514890 -0.000001 0.000001 0.000000 1.027198 5.909644 -50.378785 5.070872 5.798992 -82.324154 0.000001 -0.000000 0.000001 2.566152 7.151513 -54.470960 5.460191 5.838035 -86.162782 0.000001 -0.000002 0.000001 4.135188 8.114459 -58.588680 4.970045 5.784609 -81.325000 0.000001 0.000001 -0.000000 -0.000000 0.000000 0.000001 -0.053901 25.815135 0.636912 -26.190033 20.956077 46.736734 0.000068 109.637541 -0.000086 -37.147428 -19.956042 7.222437 20.481772 7.495040 18.826645 4.158194 -12.187783 -33.819128 -0.000002 -0.000001 -0.000001 -0.887364 1.427786 12.688201 1.917779 -3.767749 53.940268 -0.000000 0.000000 0.000000 0.775537 -5.203326 54.632364 5.564476 -4.568135 101.246421 0.000000 -0.000001 -0.000001 6.931134 -8.541345 63.922450 2.910705 -4.317983 67.953470 -0.000001 -0.000001 -0.000002 8.374533 -8.171077 74.001015 2.173684 -3.940976 57.745377 -0.000001 0.000002 -0.000003 0.000002 0.000001 0.000001 0.000001 0.000002 -0.000000 0.000001 -0.000003 0.000002 0.000001 0.000002 0.000000 0.000001 0.000002 0.000000 0.000001 0.000002 -0.000000 0.000001 -0.000003 0.000002 0.000001 0.000002 0.000000 0.000001 0.000002 0.000000 0.000001 0.000002 -0.000000 0.000001 -0.000003 0.000002 -0.000000 0.000001 -0.000000 -0.000000 0.000001 -0.000000 -0.000000 0.000001 -0.000000 
0.308352 27.884666 1.428070 7.242607 -11.626933 7.282511 -0.000001 0.000000 -0.000000 -120.123917 -7.419368 13.857534 119.999990 6.289214 -1.110551 -2.829372 6.990494 -6.182664 0.000000 0.000000 0.000000 0.000003 -0.000000 0.000000 -59.915601 -0.962797 -22.936930 153.469310 -14.883191 -3.379491 -4.979690 -19.953469 -12.273435 -0.000001 0.000001 -0.000001 -0.000002 -0.000001 -0.000000 21.078570 -11.259986 -7.680493 4.970215 -2.075497 -2.112615 5.357145 -4.194845 -0.115971 4.654779 7.743525 -1.356447 -25.977880 14.173196 3.443634 -0.000000 0.000000 -0.000000 -0.000000 0.000000 -0.000000 -0.000000 0.000000 -0.000000 -0.000000 0.000000 -0.000000 -0.000002 -0.000000 0.000000 -0.000000 0.000000 -0.000000 -0.000002 -0.000000 0.000000 -0.000000 0.000000 -0.000000 -0.000000 0.000000 -0.000000 3.254609 -14.055470 -2.365060 -39.851483 -11.194896 -30.857972 -0.000524 -94.800874 -0.000549 -149.185962 -24.811688 10.001766 9.873056 -5.863787 -9.427553 1.000138 0.731279 -1.438315 0.000000 0.000002 -0.000000 -3.156934 0.551127 -39.712834 4.788061 5.754022 -79.514870 0.000002 0.000001 0.000000 1.027204 5.909648 -50.378789 5.070872 5.798987 -82.324161 0.000003 -0.000001 0.000001 2.566158 7.151511 -54.470957 5.460195 5.838046 -86.162761 0.000001 0.000005 0.000001 4.135198 8.114470 -58.588693 4.970053 5.784588 -81.325000 -0.000001 -0.000001 -0.000001 0.000003 -0.000002 0.000000 0.044067 25.634345 0.224449 -27.930279 21.405927 46.907861 0.000116 109.259695 -0.000132 -36.654371 -19.349253 6.675253 20.512069 7.556074 18.772029 4.177496 -12.267248 -33.733488 0.000000 -0.000001 -0.000000 -0.888288 1.426384 12.702617 1.919341 -3.768854 53.963812 0.000001 0.000000 -0.000001 0.793190 -5.217077 54.672468 5.564486 -4.568115 101.246428 0.000001 0.000001 -0.000001 6.935644 -8.539771 63.963840 2.914887 -4.319665 68.009054 -0.000000 -0.000001 -0.000002 8.372975 -8.167590 74.033541 2.174025 -3.941182 57.750363 0.000000 0.000002 -0.000001 0.000000 0.000000 0.000001 0.000001 -0.000002 0.000001 0.000001 0.000000 0.000001 0.000001 -0.000002 0.000001 0.000001 -0.000002 0.000001 0.000001 -0.000002 0.000001 0.000001 0.000000 0.000000 0.000001 -0.000002 0.000001 0.000001 -0.000002 0.000001 0.000001 -0.000002 0.000001 0.000001 0.000000 0.000000 -0.000001 0.000000 -0.000000 -0.000001 0.000000 -0.000000 -0.000001 0.000000 -0.000000 
0.603349 28.293060 1.619631 8.261775 -12.085255 8.582294 -0.000000 -0.000001 -0.000001 -119.477344 -7.245832 14.864503 119.935144 5.496842 -2.428948 -4.003010 7.525364 -5.774440 0.000000 0.000000 0.000000 -0.000002 0.000000 -0.000000 -61.376339 1.369361 -23.540769 153.170940 -13.809234 -4.056476 -3.507206 -19.429732 -10.329855 0.000002 -0.000001 0.000002 -0.000004 -0.000000 -0.000000 21.291211 -11.241614 -9.092240 4.936726 -1.921812 -2.304328 5.310610 -4.018231 -0.337872 4.377712 7.734400 -1.312252 -28.493778 13.633779 4.387553 0.000001 0.000000 -0.000000 0.000001 0.000000 -0.000000 0.000001 0.000000 -0.000000 0.000001 0.000000 -0.000000 -0.000001 0.000000 0.000000 0.000001 0.000000 -0.000000 -0.000001 0.000000 0.000000 0.000001 0.000000 -0.000000 0.000001 0.000000 -0.000000 3.234647 -14.172543 -2.782514 -42.058953 -12.502817 -30.029152 -0.000826 -94.053754 -0.000775 -149.056571 -24.112338 10.799129 9.873050 -5.863804 -9.427556 1.000139 0.731284 -1.438318 -0.000002 -0.000000 -0.000001 -3.156947 0.551107 -39.712847 4.788065 5.754013 -79.514890 -0.000001 -0.000001 -0.000000 1.027190 5.909626 -50.378796 5.070893 5.799002 -82.324147 0.000001 -0.000001 0.000001 2.566151 7.151502 -54.470957 5.460184 5.838046 -86.162782 -0.000001 -0.000002 -0.000003 4.135185 8.114445 -58.588659 4.970055 5.784600 -81.325007 -0.000001 -0.000001 -0.000001 0.000002 -0.000001 -0.000002 0.097497 25.526884 0.017988 -29.528332 21.506678 46.963565 0.000115 109.492413 -0.000131 -36.565602 -19.443049 5.981499 20.562064 7.656272 18.682172 4.209656 -12.397665 -33.592479 0.000001 0.000000 -0.000001 -0.889834 1.424047 12.726269 1.921891 -3.770689 54.002426 -0.000001 -0.000001 0.000002 0.822205 -5.239640 54.738365 5.564496 -4.568112 101.246421 -0.000001 -0.000000 -0.000001 6.943076 -8.537158 64.031876 2.921762 -4.322438 68.100415 0.000000 -0.000000 -0.000003 8.364618 -8.160267 74.086686 2.174998 -3.941794 57.764371 0.000000 0.000001 -0.000001 0.000003 -0.000001 -0.000002 -0.000000 -0.000002 0.000001 0.000001 0.000000 0.000000 -0.000000 -0.000002 0.000000 -0.000000 -0.000002 0.000000 -0.000000 -0.000002 0.000001 0.000001 0.000000 -0.000000 -0.000000 -0.000002 0.000000 -0.000000 -0.000002 0.000000 -0.000000 -0.000002 0.000001 0.000001 0.000000 -0.000000 -0.000000 -0.000001 -0.000001 -0.000000 -0.000001 -0.000001 -0.000000 -0.000001 -0.000001 
0.905487 28.824890 1.811692 9.371849 -12.660936 9.784266 0.000000 0.000001 -0.000001 -118.672392 -7.002000 15.855215 119.685077 4.750252 -3.608521 -5.279246 8.144162 -5.392250 0.000000 -0.000000 0.000000 -0.000000 0.000001 -0.000000 -63.165432 3.540003 -23.956233 152.621656 -12.871096 -4.867697 -1.659964 -18.805056 -8.293155 -0.000001 -0.000004 0.000003 -0.000002 -0.000001 0.000001 21.573938 -11.109938 -10.413927 4.940780 -1.745258 -2.492825 5.291272 -3.829318 -0.550734 4.113911 7.727101 -1.276953 -31.013816 13.098092 5.315459 0.000001 -0.000000 -0.000000 0.000001 -0.000000 -0.000000 0.000001 -0.000000 0.000000 0.000001 -0.000000 -0.000000 -0.000001 -0.000000 -0.000000 0.000001 -0.000000 -0.000000 -0.000001 -0.000000 -0.000000 0.000001 -0.000000 -0.000000 0.000001 -0.000000 -0.000000 3.208606 -14.314227 -3.283651 -44.296581 -13.868773 -29.330482 -0.001364 -93.532590 -0.001368 -148.767148 -23.563295 11.966478 9.873045 -5.863794 -9.427550 1.000142 0.731306 -1.438310 0.000001 -0.000000 -0.000001 -3.156937 0.551126 -39.712824 4.788076 5.753999 -79.514870 -0.000001 0.000003 0.000002 1.027200 5.909653 -50.378785 5.070882 5.798981 -82.324154 0.000001 -0.000000 0.000001 2.566139 7.151499 -54.470960 5.460180 5.838060 -86.162775 -0.000001 0.000002 0.000001 4.135186 8.114476 -58.588680 4.970048 5.784604 -81.325007 0.000002 -0.000001 -0.000006 -0.000001 0.000000 -0.000002 0.114830 25.473124 -0.016668 -30.958324 21.314054 46.888040 -0.000026 110.240872 0.000037 -36.645147 -20.002972 5.196113 20.631384 7.794334 18.557902 4.254940 -12.577139 -33.397255 -0.000003 -0.000002 -0.000000 -0.891953 1.420847 12.758930 1.925387 -3.773234 54.055722 -0.000001 0.000000 0.000000 0.862321 -5.270642 54.829361 5.564481 -4.568114 101.246449 0.000001 0.000000 -0.000001 6.953322 -8.533518 64.125771 2.931287 -4.326222 68.226486 0.000002 -0.000000 -0.000001 8.353116 -8.150169 74.160036 2.176307 -3.942626 57.783626 -0.000001 0.000000 0.000002 0.000003 -0.000002 -0.000000 -0.000002 -0.000002 -0.000000 -0.000000 0.000000 -0.000000 -0.000002 -0.000002 -0.000000 -0.000002 -0.000002 -0.000000 -0.000002 -0.000002 -0.000000 -0.000000 0.000000 -0.000000 -0.000002 -0.000002 -0.000000 -0.000002 -0.000002 -0.000000 -0.000002 -0.000002 -0.000000 -0.000000 0.000000 -0.000000 0.000000 0.000001 -0.000001 0.000000 0.000001 -0.000001 0.000000 0.000001 -0.000001 
